<?xml version="1.0" encoding="UTF-8"?>
<svg id="Capa_1" xmlns="http://www.w3.org/2000/svg" version="1.1" viewBox="0 0 800 300">
  <!-- Generator: Adobe Illustrator 30.7.0, SVG Export Plug-In . SVG Version: 2.1.4 Build 114)  -->
  <defs>
    <style>
      .st0 {
        fill: none;
      }

      .st1 {
        fill: #dd5152;
      }

      .st2 {
        fill: #0a2808;
      }
    </style>
  </defs>
  <path class="st0" d="M443.03,139.83c-3.56-2.28-7.51-3.43-11.84-3.43s-8.15,1.12-11.7,3.36c-3.56,2.24-6.35,5.25-8.38,9.04-2.03,3.78-3.05,7.85-3.05,12.19s1.02,8.4,3.05,12.19c2.03,3.78,4.85,6.79,8.45,9s7.53,3.32,11.77,3.32,8.15-1.11,11.7-3.32c3.55-2.21,6.32-5.19,8.31-8.93,1.98-3.74,2.98-7.82,2.98-12.26s-1-8.38-2.98-12.12c-1.98-3.74-4.75-6.75-8.31-9.04Z"/>
  <path class="st0" d="M516.41,153.26c3.98-3.48,8.16-6.68,12.43-9.5.5-.33.97-.62,1.47-.94-1.13-1.09-2.35-2.11-3.71-2.99-3.56-2.28-7.51-3.43-11.84-3.43s-8.15,1.12-11.7,3.36c-3.56,2.24-6.35,5.25-8.38,9.04s-3.05,7.85-3.05,12.19,1.02,8.4,3.05,12.19c.97,1.81,2.14,3.43,3.47,4.89,1.68-4.65,4.1-9.09,7.27-13.17,3.25-4.17,6.95-8.09,11-11.63Z"/>
  <path class="st0" d="M253.7,139.9c-4.33-3.62-9.34-5.43-15.01-5.44-4.82,0-9.48,1.6-13.24,4.61-4.62,3.71-7.56,8.77-8.8,15.19h45.56c-1.34-5.96-4.18-10.75-8.52-14.37Z"/>
  <path class="st0" d="M534.9,173.24c1.47-2.77,2.4-5.74,2.78-8.9-.58.42-1.17.79-1.75,1.23-3.51,2.63-6.89,5.56-10.07,8.7-3.11,3.07-5.72,6.14-7.75,9.13-.46.67-.76,1.31-1.14,1.96,3.45-.31,6.67-1.34,9.64-3.19,3.55-2.21,6.32-5.19,8.31-8.93Z"/>
  <polygon class="st2" points="177.53 184.25 131.2 184.25 188.74 104.41 188.74 92.91 115.41 92.91 115.41 124.21 128.36 124.21 128.36 105.93 168.94 105.93 112.92 184.8 112.92 197.27 190.47 197.27 190.47 164.1 177.53 164.1 177.53 184.25"/>
  <path class="st2" d="M271.91,142.18c-3.28-6.3-7.77-11.15-13.47-14.54-5.7-3.39-12.38-5.09-20.05-5.09-7.02,0-13.43,1.65-19.25,4.95-5.82,3.3-10.4,7.88-13.75,13.75-3.35,5.86-5.02,12.44-5.02,19.74s1.7,13.94,5.09,19.81c3.39,5.86,8.14,10.43,14.23,13.71,6.09,3.28,13.06,4.92,20.91,4.92s14.58-1.58,21.02-4.74c6.44-3.16,11.64-7.83,15.62-14.02l-12.6-5.68c-2.77,4.11-6.21,7.16-10.32,9.14s-8.56,2.98-13.36,2.98c-6.56,0-12.09-2.02-16.62-6.06-4.52-4.04-7.22-9.54-8.1-16.52h61.01c-.28-8.59-2.05-16.03-5.33-22.33ZM216.65,154.27c1.24-6.42,4.18-11.48,8.8-15.19,3.76-3.02,8.42-4.62,13.24-4.61,5.67,0,10.67,1.82,15.01,5.44,4.34,3.62,7.18,8.41,8.52,14.37h-45.56Z"/>
  <path class="st2" d="M322.56,127.36c-4.32,2.56-7.93,7.1-10.84,13.61v-16.48h-25.97v12.81h14.61v47.23h-14.61v12.74h44.66v-12.74h-15.85v-16.48c0-7.76.61-13.69,1.83-17.8,1.23-4.11,3.73-7.18,7.52-9.21,3.78-2.03,9.56-3.05,17.32-3.05h3.11v-14.47h-3.25c-8.03,0-14.2,1.28-18.52,3.84Z"/>
  <path class="st2" d="M375.43,100.39l-14.33,13.09v11.01h-9.48v12.81h9.48v41.14c0,7.34,1.31,12.52,3.95,15.54,2.63,3.02,6.95,4.53,12.95,4.53,2.72,0,6.3-.65,10.73-1.94v-12.94c-2.54.87-5.08,1.31-7.62,1.31-2.08,0-3.54-.59-4.39-1.77-.86-1.17-1.29-3.75-1.29-7.72v-38.15h13.3v-12.81h-13.3v-24.1Z"/>
  <path class="st2" d="M450.79,127.78c-5.82-3.49-12.3-5.23-19.46-5.23s-13.99,1.65-19.81,4.95c-5.82,3.3-10.35,7.86-13.61,13.68-3.25,5.82-4.88,12.42-4.88,19.81s1.63,13.53,4.88,19.39c3.25,5.86,7.81,10.5,13.68,13.91,5.86,3.42,12.44,5.13,19.74,5.13s13.5-1.71,19.32-5.13c5.82-3.41,10.41-8.05,13.78-13.91,3.37-5.86,5.05-12.33,5.05-19.39s-1.66-13.32-4.98-19.18c-3.32-5.86-7.9-10.54-13.71-14.02ZM451.34,173.24c-1.98,3.74-4.75,6.72-8.31,8.93-3.56,2.21-7.46,3.32-11.7,3.32s-8.17-1.11-11.77-3.32-6.42-5.22-8.45-9c-2.03-3.79-3.05-7.85-3.05-12.19s1.02-8.4,3.05-12.19c2.03-3.78,4.82-6.8,8.38-9.04,3.55-2.24,7.45-3.36,11.7-3.36s8.28,1.14,11.84,3.43c3.55,2.29,6.32,5.3,8.31,9.04,1.98,3.74,2.98,7.78,2.98,12.12s-1,8.52-2.98,12.26Z"/>
  <path class="st2" d="M537.68,164.34c-.38,3.16-1.3,6.12-2.78,8.9-1.98,3.74-4.75,6.72-8.31,8.93-2.97,1.85-6.19,2.88-9.64,3.19-1.18,2.02-2.12,3.98-2.55,5.78-.46,1.93.03,2.94.57,3.66h0s.51.19,1.69.1c2.23-.16,5-.95,8.21-2.35,3.47-1.51,7.37-3.67,11.58-6.42,4.28-2.79,8.65-6.03,12.98-9.64.26-.22.52-.47.78-.69,1.88-4.61,2.82-9.55,2.82-14.82,0-1.72-.1-3.4-.31-5.06-1.91.72-3.98,1.62-6.33,2.88-2.89,1.55-5.81,3.45-8.73,5.54Z"/>
  <path class="st2" d="M497.75,179.09c.12-.35.27-.68.39-1.03-1.33-1.45-2.5-3.08-3.47-4.89-2.03-3.79-3.05-7.85-3.05-12.19s1.02-8.4,3.05-12.19,4.82-6.8,8.38-9.04c3.55-2.24,7.45-3.36,11.7-3.36s8.28,1.14,11.84,3.43c1.37.88,2.58,1.9,3.71,2.99.9-.58,1.8-1.18,2.67-1.72-1.67-1.37-3.05-2.91-4.12-4.6-2.41-3.82-3.59-8.04-3.52-12.56-3.31-.91-6.79-1.38-10.46-1.38-7.39,0-13.99,1.65-19.81,4.95-5.82,3.3-10.35,7.86-13.61,13.68s-4.88,12.42-4.88,19.81,1.63,13.53,4.88,19.39c3.25,5.86,7.81,10.5,13.68,13.91.44.26.92.44,1.37.68-.1-.49-.23-.96-.31-1.46-.67-4.6-.15-9.45,1.53-14.41Z"/>
  <g>
    <path class="st1" d="M697.99,122.65c-2.47-.8-6.22-1.47-11.24-2.03-5.02-.56-11.4-1.04-19.13-1.43,1.67-2.39,3.43-4.72,5.26-7,1.83-2.27,3.75-4.52,5.74-6.76,1.43-1.75,1.63-3.51.6-5.26-1.12-1.75-2.59-2.91-4.42-3.47-1.91-.72-3.39-.48-4.42.72-1.19,1.6-2.75,3.79-4.66,6.58-1.91,2.79-4.22,6.22-6.93,10.28-.48.8-.98,1.58-1.5,2.33s-1.06,1.57-1.61,2.45c-5.58,0-11.42.22-17.52.66-6.1.44-12.54,1.1-19.31,1.97-6.78.88-13.65,2.07-20.63,3.59-6.98,1.51-14.17,3.39-21.58,5.62-1.6.56-2.47,1.87-2.63,3.95,0,1.99.48,3.83,1.43,5.5.96,1.6,2.11,2.15,3.47,1.67,11.4-5.1,23.16-8.77,35.27-11,12.2-2.23,24.15-3.43,35.87-3.59-2.63,3.83-5.24,7.59-7.83,11.3-2.59,3.71-5.2,7.43-7.83,11.18-2.63,3.67-5.12,7.02-7.47,10.05-2.35,3.03-4.56,5.74-6.64,8.13-4.23,4.79-7.17,7.18-8.85,7.18-3.75,0-.76-8.69,8.97-26.07.96-1.75,1.03-3.31.24-4.66-.56-1.28-1.63-2.11-3.23-2.51-1.43-.32-2.95.08-4.54,1.19-1.43,1.2-3.23,3.07-5.38,5.62-1.6,1.83-2.91,3.27-3.95,4.31-4.15-5.9-9.49-7.13-16.02-3.71-2.43,1.4-4.68,3.03-6.83,4.81-.45-.4-.98-.65-1.6-.69-.68-.04-1.26.26-1.73.9-3.43,4.71-7.25,9.26-11.48,13.69-4.23,4.42-8.59,8.51-13.09,12.26s-8.99,7.08-13.45,9.98c-4.47,2.91-8.57,5.18-12.32,6.82-3.75,1.63-7.04,2.55-9.86,2.75-2.83.2-4.84-.5-6.04-2.09-1.67-2.23-2.15-4.84-1.43-7.83.72-2.99,2.19-6.12,4.42-9.39,2.23-3.27,5.02-6.56,8.37-9.87,3.35-3.31,6.87-6.36,10.58-9.15,3.71-2.79,7.41-5.18,11.12-7.17s7-3.39,9.86-4.18c1.83-.48,3.13-1.53,3.89-3.17.75-1.63,1.09-3.35,1.02-5.14-.08-1.79-.54-3.35-1.38-4.66-.84-1.31-1.93-1.93-3.29-1.85-5.5,0-9.33-.84-11.48-2.51-2.15-1.68-3.17-3.81-3.05-6.4.12-2.59,1.14-5.44,3.05-8.55,1.91-3.11,4.22-6.14,6.93-9.09s5.54-5.62,8.49-8.01,5.54-4.14,7.77-5.26c1.99-1.04,3.61-1.57,4.84-1.62,1.24-.04,2.11.26,2.63.9.52.64.7,1.55.54,2.75-.16,1.19-.6,2.47-1.31,3.83-.56,1.12-1.3,2.25-2.21,3.41s-1.91,2.25-2.99,3.29c-1.08,1.04-2.21,2.02-3.41,2.93-1.19.92-2.31,1.7-3.35,2.33-1.2.64-1.72,1.6-1.55,2.87.16,1.28.66,2.47,1.49,3.59.84,1.12,1.89,1.95,3.17,2.51,1.28.56,2.43.4,3.47-.48,4.22-3.51,7.43-6.97,9.63-10.4,2.19-3.43,3.55-6.64,4.07-9.63.52-2.99.32-5.7-.6-8.13-.92-2.43-2.35-4.36-4.31-5.8s-4.3-2.31-7.05-2.63c-2.75-.32-5.68.12-8.79,1.32-3.51,1.36-7,3.39-10.46,6.1-3.47,2.71-6.62,5.78-9.45,9.21-2.83,3.43-5.16,7.05-7,10.88-1.83,3.83-2.79,7.53-2.87,11.12-.08,3.59.84,6.9,2.75,9.92,1.91,3.03,5.22,5.42,9.92,7.17-3.51,1.91-7.32,4.23-11.42,6.94-4.1,2.71-8.07,5.74-11.9,9.08-3.83,3.35-7.28,7-10.34,10.94-3.07,3.95-5.36,8.19-6.88,12.73-1.43,4.23-1.87,8.25-1.32,12.08s1.93,7.1,4.13,9.8c2.19,2.71,5.16,4.67,8.91,5.86,3.75,1.2,8.13,1.24,13.15.12,3.51-.8,7.07-2.17,10.7-4.12,3.63-1.95,7.17-4.29,10.64-7,3.47-2.71,6.84-5.72,10.11-9.03,2.05-2.07,3.98-4.18,5.85-6.3.43,2.31,1.75,4,4.19,4.92,2.95.8,6.06.36,9.33-1.31,3.19-1.67,6.37-4.02,9.57-7.05,1.59-1.51,3.13-3.03,4.6-4.55,1.47-1.51,2.93-3.06,4.36-4.66,1.12-1.2,2.21-2.35,3.29-3.46,1.08-1.12,2.09-2.12,3.05-2.99-2.87,6.46-4.23,11.6-4.07,15.43.24,3.83,1.43,6.33,3.59,7.53,3.59,1.84,7.65,1,12.2-2.51,4.38-3.59,8.69-8.25,12.91-13.99,2.07-2.87,3.99-5.58,5.74-8.13,1.75-2.55,3.35-4.98,4.78-7.29.64-.96,1.23-1.83,1.79-2.63.56-.8,1.03-1.51,1.43-2.15-4.47,8.85-8.33,17.36-11.6,25.53-3.27,8.17-6.06,16.08-8.37,23.73-.48,1.92-.24,3.35.72,4.31.72.88,1.95,1.44,3.71,1.68,1.43.08,2.87-.12,4.31-.6,1.35-.47,2.15-1.19,2.39-2.15,1.11-7.57,3.99-18.17,8.61-31.81,4.78-13.55,11.68-27.7,20.68-42.45,12.99.56,23.8,2.19,32.41,4.9,1.43.24,2.59-.36,3.47-1.79.88-1.59,1.35-3.23,1.43-4.9.16-1.67-.28-2.71-1.31-3.11ZM598.27,157.44c-.56.95-1.83,2.51-3.83,4.66-.96,1.04-1.97,2.07-3.05,3.11-1.08,1.04-2.21,2.12-3.41,3.23-1.2,1.12-2.31,2.11-3.35,2.99-1.04.87-2.03,1.63-2.99,2.27-2.95,1.99-4.78,2.87-5.5,2.63-.72-.08-.72-.91,0-2.51.56-1.36,1.51-2.95,2.87-4.79.64-.87,1.21-1.65,1.73-2.33.52-.67,1.02-1.29,1.5-1.85,3.51-3.9,6.57-6.5,9.21-7.77,2.47-1.19,4.34-1.67,5.62-1.43,1.19.32,1.59.91,1.19,1.79Z"/>
    <path class="st1" d="M696.01,156.91c-.6-.44-1.33-.46-2.21-.06-.48.24-1.42.7-2.81,1.38-1.4.68-3.03,1.5-4.9,2.45-1.87.96-3.87,1.95-5.98,2.99-2.11,1.04-4.11,2.05-5.98,3.05-1.87,1-3.55,1.88-5.02,2.63-1.48.76-2.49,1.34-3.05,1.73-1.19-2.87-1.31-5.78-.36-8.73.96-2.95,2.51-5.66,4.66-8.13,2.15-2.47,4.66-4.58,7.53-6.34,2.87-1.75,5.62-2.91,8.25-3.47,1.43-.32,2.31-1.14,2.63-2.45.32-1.31.28-2.65-.12-4-.4-1.35-1.14-2.49-2.21-3.41-1.08-.91-2.29-1.14-3.65-.66-4.07,1.6-7.97,3.83-11.72,6.7-3.75,2.87-6.86,6.16-9.33,9.86-2.47,3.71-4.07,7.72-4.78,12.02-.72,4.31-.04,8.69,2.03,13.15-2.47,1.68-4.8,3.39-7,5.14-2.19,1.75-4.2,3.51-6.04,5.26-3.35,3.35-5.6,6.5-6.76,9.45-1.16,2.95-1.53,5.52-1.14,7.71.4,2.19,1.45,3.93,3.17,5.2s3.83,1.87,6.34,1.79c2.51-.08,5.28-.92,8.31-2.51,3.03-1.59,6.06-4.18,9.09-7.77,1.67-1.99,2.89-3.99,3.65-5.98.76-1.99,1.22-3.94,1.38-5.86.16-1.91.1-3.72-.18-5.44-.28-1.72-.62-3.29-1.02-4.73,1.67-1.19,3.78-2.49,6.34-3.88,2.55-1.39,5.16-2.79,7.83-4.19,2.67-1.39,5.16-2.67,7.47-3.83,2.31-1.15,4.07-2.09,5.26-2.81.8-.48,1.31-1.15,1.55-2.03.24-.87.24-1.69,0-2.45s-.66-1.36-1.26-1.79ZM660.74,186.62c-.28,1.28-.8,2.61-1.56,4.01-.76,1.4-1.73,2.81-2.93,4.25-1.19,1.43-2.55,2.75-4.07,3.94-2.79,2.31-4.64,3.01-5.56,2.1-.92-.92-.14-3.17,2.33-6.76,1.51-2.15,3.45-4.22,5.8-6.22s4.32-3.55,5.92-4.67c.32.96.34,2.08.06,3.35Z"/>
  </g>
</svg>